PathFileType	4	(X/Y/Z)	HSS_walk1.trc
DataRate	CameraRate	NumFrames	NumMarkers	Units	OrigDataRate	OrigDataStartFrame	OrigNumFrames
120.0	120.0	8	44	mm	120.0	1	1008
Frame#	Time		R.Shoulder		Offset		L.Shoulder		R.Elbow		R.Wrist.Radial		R.Wrist		R.Hand		L.Elbow		L.Wrist.Radial		L.Wrist		L.Hand		R.Hip		V.Sacral		L.PSIS		L.Hip		R.Thigh.Upper		R.Thigh.Front		R.Thigh.Rear		X.Shell.Lower.Thigh.Right		R.Knee.Lateral		R.Shank.Upper		R.Shank.Front		R.Shank.Rear		X.Shell.Lower.Shank.Right		R.Ankle.Lateral		R.Heel		R.Toe		L.Thigh.Upper		L.Thigh.Front		L.Thigh.Rear		X.Shell.Lower.Thigh.Left		L.Knee.Lateral		L.Shank.Upper		L.Shank.Front		L.Shank.Rear		X.Shell.Lower.Shank.Left		L.Ankle.Lateral		L.Heel		L.Toe		R.Troc		L.Troc		R.PSIS		L.ASIS		R.ASIS
			X1	Y1	Z1	X2	Y2	Z2	X3	Y3	Z3	X4	Y4	Z4	X5	Y5	Z5	X6	Y6	Z6	X7	Y7	Z7	X8	Y8	Z8	X9	Y9	Z9	X10	Y10	Z10	X11	Y11	Z11	X12	Y12	Z12	X13	Y13	Z13	X14	Y14	Z14	X15	Y15	Z15	X16	Y16	Z16	X17	Y17	Z17	X18	Y18	Z18	X19	Y19	Z19	X20	Y20	Z20	X21	Y21	Z21	X22	Y22	Z22	X23	Y23	Z23	X24	Y24	Z24	X25	Y25	Z25	X26	Y26	Z26	X27	Y27	Z27	X28	Y28	Z28	X29	Y29	Z29	X30	Y30	Z30	X31	Y31	Z31	X32	Y32	Z32	X33	Y33	Z33	X34	Y34	Z34	X35	Y35	Z35	X36	Y36	Z36	X37	Y37	Z37	X38	Y38	Z38	X39	Y39	Z39	X40	Y40	Z40	X41	Y41	Z41	X42	Y42	Z42	X43	Y43	Z43	X44	Y44	Z44

1	0.00000	-1618.41125	1464.88513	-25.94258	-1751.20276	1397.50146	-326.62149	-1605.89294	1477.09143	-402.71094	-1658.08105	1097.75134	21.67957	-1520.17407	883.88733	-22.44999	-1544.73328	872.96143	46.34066	-1498.17737	801.39581	28.91003	-1632.96582	1112.11707	-455.22565	-1518.42346	899.59009	-391.54764	-1517.47278	899.14801	-462.35162	-1479.26086	824.46912	-435.14539	-1601.37683	1033.63989	-61.43871	-1713.87146	1019.19952	-213.80302	-1712.80713	1025.40210	-255.03061	-1593.05298	1030.97961	-359.99234	-1574.71765	690.59509	-23.47899	-1544.56104	651.21899	-39.86067	-1600.62744	653.99591	-13.95375	-1576.23572	619.42157	-32.38638	-1648.69751	516.37384	-42.38111	-1673.15234	372.16840	9.84437	-1648.64783	326.68091	-13.70941	-1707.13806	337.11859	-0.75878	-1686.78638	295.59085	-9.31231	-1708.84619	71.24184	-54.43983	-1753.31323	32.87685	-101.85545	-1554.38525	32.18053	-52.97627	-1559.86633	688.48730	-381.45770	-1545.07556	638.00122	-357.92322	-1592.03223	655.27008	-396.51309	-1569.99353	618.52173	-383.07709	-1648.57227	507.66885	-366.38647	-1689.85510	308.84802	-410.37866	-1662.84790	284.31854	-392.77560	-1721.98840	270.97327	-397.09424	-1699.56775	239.35391	-398.83997	-1689.78003	72.73555	-352.02997	-1744.86292	34.38498	-306.13309	-1544.88379	31.57726	-342.74823	-1589.58044	878.15240	-24.95414	-1588.32874	888.16455	-393.14362	-1715.67249	1022.84485	-168.91066	-1525.28735	994.07318	-318.20059	-1536.61316	996.04309	-91.29781
2	0.00833	-1618.74976	1464.84521	-25.80981	-1751.61243	1397.40735	-326.30237	-1606.31323	1477.13660	-402.42029	-1658.17773	1097.61963	21.68844	-1520.11963	883.82935	-22.40833	-1544.63794	872.93585	46.38185	-1498.06201	801.42065	28.94614	-1632.94934	1112.13892	-455.09641	-1515.90344	900.10358	-391.06839	-1516.91272	899.44672	-462.13196	-1478.41846	824.94427	-434.75793	-1601.47925	1033.62891	-61.34901	-1714.12341	1019.13580	-213.62245	-1712.98352	1025.35852	-254.86847	-1593.34021	1031.00098	-359.86496	-1574.81702	690.62048	-23.38257	-1544.61365	651.21039	-39.70387	-1600.71362	653.99512	-13.83340	-1576.28162	619.39642	-32.36961	-1648.75330	516.45087	-42.22139	-1673.19141	372.15671	9.91265	-1648.68835	326.65747	-13.62566	-1707.16077	337.07596	-0.69814	-1686.79749	295.55029	-9.26596	-1708.87256	71.25368	-54.45801	-1753.30823	32.85814	-101.87214	-1554.36377	32.17369	-52.99948	-1559.93347	688.52570	-381.34277	-1545.14099	638.04791	-357.86038	-1592.06702	655.26422	-396.39340	-1570.06531	618.56866	-383.03644	-1648.58252	507.67139	-366.34894	-1689.85669	308.83911	-410.35367	-1662.84631	284.32730	-392.74298	-1721.99316	270.97073	-397.06393	-1699.57166	239.36832	-398.81448	-1689.77246	72.70623	-352.05264	-1744.86609	34.35959	-306.13202	-1544.90039	31.57355	-342.80157	-1589.66870	878.15295	-24.84505	-1588.43054	888.17133	-393.02539	-1715.80542	1022.81604	-168.82108	-1525.51123	994.11597	-318.06207	-1537.15271	996.00684	-91.19205
3	0.01667	-1619.08423	1464.76843	-25.66982	-1751.97778	1397.33838	-326.09439	-1606.81531	1477.22522	-402.18112	-1658.24951	1097.49817	21.82216	-1520.23865	883.83893	-22.46999	-1544.51538	872.90863	46.35729	-1497.85266	801.42303	28.86480	-1632.93762	1112.14307	-454.96762	-1514.95056	900.36090	-390.74701	-1516.42432	899.69635	-461.80338	-1477.59595	825.30676	-434.41330	-1601.65161	1033.59668	-61.24063	-1714.33203	1019.09442	-213.40393	-1713.14551	1025.32080	-254.70297	-1593.55139	1031.00293	-359.73502	-1574.89514	690.62372	-23.26231	-1544.63379	651.23157	-39.70389	-1600.77588	654.00012	-13.75714	-1576.33130	619.42181	-32.30918	-1648.80676	516.40173	-42.15780	-1673.17529	372.10834	9.92765	-1648.70703	326.65012	-13.58316	-1707.17737	337.03381	-0.58160	-1686.84045	295.53040	-9.16640	-1708.84875	71.26328	-54.37743	-1753.30408	32.83216	-101.87425	-1554.37231	32.16799	-52.99069	-1560.02197	688.50952	-381.20038	-1545.26062	638.08020	-357.82385	-1592.11255	655.30804	-396.30267	-1570.11646	618.57990	-382.93539	-1648.60608	507.65851	-366.32132	-1689.89050	308.85104	-410.29532	-1662.85840	284.32883	-392.74261	-1722.00122	270.97165	-397.00302	-1699.59473	239.35791	-398.79568	-1689.74695	72.71471	-352.03500	-1744.85803	34.36685	-306.12143	-1544.87842	31.54515	-342.75217	-1589.73328	878.14062	-24.73886	-1588.51465	888.19122	-392.92651	-1716.00476	1022.75732	-168.66592	-1525.62952	994.16339	-317.87933	-1537.44556	996.06537	-91.04915
4	0.02500	-1619.47388	1464.69507	-25.47803	-1752.35999	1397.29980	-325.90338	-1607.35291	1477.29700	-402.01892	-1658.33313	1097.40918	21.89747	-1520.01257	883.84735	-22.50498	-1544.40015	872.87048	46.34675	-1497.67297	801.42993	28.74499	-1632.90198	1112.14502	-454.81378	-1513.78870	900.84271	-390.35944	-1515.84241	899.96051	-461.46893	-1476.81824	825.75549	-433.92865	-1601.86865	1033.54907	-61.15843	-1714.45789	1019.05811	-213.28055	-1713.29382	1025.29309	-254.53865	-1593.70410	1031.03040	-359.57959	-1574.97559	690.63208	-23.18376	-1544.68127	651.24554	-39.60849	-1600.85327	654.03174	-13.69915	-1576.37915	619.41199	-32.22564	-1648.88171	516.39966	-42.02834	-1673.20227	372.09695	9.97669	-1648.74048	326.64209	-13.52773	-1707.18262	336.97446	-0.57769	-1686.85266	295.49481	-9.13610	-1708.84265	71.21134	-54.43400	-1753.33240	32.82760	-101.84769	-1554.36670	32.15916	-52.97665	-1560.15576	688.59357	-381.13095	-1545.36865	638.14423	-357.77158	-1592.20251	655.33112	-396.25333	-1570.18433	618.61292	-382.81229	-1648.62720	507.69046	-366.29019	-1689.93445	308.87396	-410.25497	-1662.88806	284.33569	-392.66321	-1722.02502	270.98300	-396.97968	-1699.61328	239.39114	-398.73779	-1689.76257	72.71960	-351.99139	-1744.87109	34.35751	-306.12057	-1544.88452	31.54126	-342.84445	-1589.82056	878.15491	-24.57894	-1588.63989	888.18591	-392.79611	-1716.22058	1022.68506	-168.47176	-1525.75928	994.19415	-317.77600	-1537.68384	996.11053	-90.94576
5	0.03333	-1619.80688	1464.61157	-25.25018	-1752.75171	1397.19861	-325.66187	-1607.75781	1477.41504	-401.77481	-1658.45667	1097.34656	22.00618	-1520.02148	883.85492	-22.63042	-1544.27979	872.85681	46.25563	-1497.52979	801.41522	28.63273	-1632.93018	1112.12427	-454.67108	-1512.36743	901.31915	-389.88977	-1515.40833	900.28320	-461.14417	-1475.99072	826.27197	-433.43176	-1602.15320	1033.51489	-61.04218	-1714.58679	1019.02893	-213.16275	-1713.45459	1025.24744	-254.40149	-1593.82861	1031.03528	-359.43964	-1575.03784	690.66327	-23.08477	-1544.72998	651.27991	-39.51920	-1600.93103	654.03717	-13.61859	-1576.44299	619.43420	-32.16237	-1648.92273	516.37177	-42.08663	-1673.26562	372.05054	10.04823	-1648.75269	326.61716	-13.50963	-1707.19495	336.95682	-0.51841	-1686.88574	295.46426	-9.14275	-1708.85278	71.22277	-54.38892	-1753.33618	32.85040	-101.82254	-1554.37305	32.16317	-52.98231	-1560.28784	688.59882	-381.02405	-1545.50940	638.21667	-357.66357	-1592.31885	655.37946	-396.02740	-1570.30432	618.65851	-382.74231	-1648.70056	507.68991	-366.24997	-1689.94543	308.89487	-410.21085	-1662.90442	284.31396	-392.61057	-1722.08081	270.97308	-396.91214	-1699.67456	239.39807	-398.69952	-1689.76355	72.72906	-352.05124	-1744.86206	34.33789	-306.14279	-1544.89856	31.57152	-342.78360	-1589.91125	878.14777	-24.45411	-1588.80139	888.20599	-392.57608	-1716.39917	1022.63324	-168.27344	-1525.84302	994.28284	-317.66785	-1538.09631	996.16022	-90.79630
6	0.04167	-1620.11072	1464.56665	-25.03498	-1753.14587	1397.13416	-325.41483	-1608.31628	1477.49438	-401.70325	-1658.52698	1097.24792	22.04510	-1519.76697	883.88458	-22.69647	-1544.22766	872.84412	46.20213	-1497.42065	801.42352	28.49590	-1632.96411	1112.08740	-454.49292	-1511.29333	901.51593	-389.66449	-1514.90051	900.55023	-460.81528	-1475.36267	826.73212	-432.96964	-1602.20349	1033.42737	-60.92172	-1714.69263	1019.02283	-213.01901	-1713.62939	1025.22314	-254.25105	-1594.03430	1031.08923	-359.35403	-1575.13245	690.68829	-23.02925	-1544.76245	651.26105	-39.48024	-1600.98962	654.08215	-13.55838	-1576.47961	619.45551	-32.14177	-1648.99841	516.42303	-41.98106	-1673.30872	372.04309	10.07095	-1648.78625	326.61813	-13.46257	-1707.22998	336.95593	-0.48870	-1686.91223	295.43115	-9.14787	-1708.84570	71.20140	-54.41935	-1753.32996	32.83381	-101.79881	-1554.37976	32.17350	-52.98969	-1560.43066	688.64703	-380.97977	-1545.62549	638.22052	-357.56509	-1592.43970	655.38678	-395.98621	-1570.40833	618.65851	-382.62735	-1648.75195	507.70847	-366.16534	-1689.99280	308.91589	-410.13409	-1662.95264	284.32095	-392.53848	-1722.11084	270.98083	-396.87723	-1699.72815	239.38634	-398.62747	-1689.77820	72.71187	-352.00659	-1744.86438	34.31126	-306.15506	-1544.91003	31.58638	-342.76895	-1590.01453	878.16803	-24.33602	-1588.95532	888.21210	-392.53137	-1716.56348	1022.58295	-168.11169	-1525.96765	994.33740	-317.44324	-1538.09570	996.17090	-90.72557
7	0.05000	-1620.40723	1464.48755	-24.82015	-1753.53723	1397.10278	-325.15829	-1608.79028	1477.61670	-401.52591	-1658.61951	1097.18811	22.14651	-1519.69055	883.88818	-22.87818	-1544.12659	872.79468	46.08348	-1497.32312	801.41705	28.38444	-1633.02161	1112.04395	-454.30771	-1503.94995	901.95337	-389.33224	-1514.45557	900.83087	-460.46881	-1474.58716	827.14630	-432.43274	-1602.34619	1033.43286	-60.86185	-1714.84351	1018.98578	-212.85120	-1713.79419	1025.18872	-254.11259	-1594.15234	1031.04968	-359.16895	-1575.18225	690.67896	-22.99626	-1544.78723	651.24463	-39.48736	-1601.05127	654.09503	-13.48899	-1576.54126	619.40381	-32.06722	-1649.04761	516.44019	-41.96618	-1673.35889	372.01956	10.15233	-1648.79236	326.59149	-13.44285	-1707.25769	336.89832	-0.40386	-1686.97009	295.40811	-9.07692	-1708.87012	71.24269	-54.38910	-1753.33789	32.80476	-101.80901	-1554.37976	32.16814	-53.00014	-1560.58606	688.65186	-380.90311	-1545.71692	638.28094	-357.49146	-1592.53528	655.41345	-395.89307	-1570.48779	618.68793	-382.54309	-1648.84436	507.70859	-366.04507	-1690.07678	308.91525	-410.04260	-1663.00464	284.34940	-392.57712	-1722.15833	270.98123	-396.82147	-1699.80029	239.43103	-398.59149	-1689.78833	72.70737	-352.00714	-1744.86133	34.29956	-306.15918	-1544.89697	31.58471	-342.77960	-1590.09363	878.18158	-24.23596	-1589.16089	888.25873	-392.46304	-1716.66589	1022.55615	-167.98068	-1526.10364	994.33441	-317.38562	-1537.88354	996.23218	-90.63368
8	0.05833	-1620.71558	1464.42322	-24.61508	-1753.92126	1397.01868	-324.92368	-1609.33350	1477.75500	-401.19077	-1658.41101	1096.97278	21.62339	-1519.66675	883.87152	-22.92107	-1544.01978	872.76477	45.93976	-1497.19934	801.39471	28.21058	-1633.05505	1112.02808	-454.10233	-1500.87488	901.37488	-388.59769	-1513.47168	900.96844	-459.36252	-1473.88135	827.58875	-432.01489	-1602.34949	1033.39539	-60.74498	-1715.04712	1018.97772	-212.61732	-1713.97534	1025.16504	-253.94827	-1594.51294	1031.10376	-359.09332	-1575.26025	690.68939	-22.92343	-1544.80811	651.24420	-39.49491	-1601.09497	654.09668	-13.44009	-1576.57080	619.42450	-32.02021	-1649.09546	516.45343	-41.91623	-1673.38464	371.98520	10.18925	-1648.84802	326.59631	-13.31188	-1707.29785	336.87729	-0.37950	-1687.01331	295.41766	-9.01493	-1708.84766	71.21944	-54.39935	-1753.35205	32.79644	-101.82150	-1554.38098	32.17816	-52.97323	-1560.72827	688.65271	-380.85913	-1545.81946	638.32690	-357.44336	-1592.65210	655.41473	-395.82852	-1570.56152	618.70355	-382.47348	-1648.93750	507.71039	-365.97720	-1690.12573	308.90179	-410.00800	-1663.07690	284.34039	-392.42105	-1722.21606	270.98096	-396.76102	-1699.88843	239.46443	-398.56628	-1689.79321	72.70152	-352.02063	-1744.88391	34.28169	-306.16232	-1544.90833	31.61801	-342.82007	-1590.20056	878.18311	-24.08569	-1589.42200	888.30548	-392.38748	-1716.74561	1022.51385	-167.82791	-1526.23279	994.39441	-317.29440	-1537.81860	996.28156	-90.52102
